<?xml version="1.0" encoding="utf-8"?>
<!-- Generator: Adobe Illustrator 26.0.1, SVG Export Plug-In . SVG Version: 6.00 Build 0)  -->
<svg version="1.1" id="Layer_1" xmlns="http://www.w3.org/2000/svg" xmlns:xlink="http://www.w3.org/1999/xlink" x="0px" y="0px"
	 viewBox="0 0 432 432" style="enable-background:new 0 0 432 432;" xml:space="preserve">
<style type="text/css">
	.st0{fill:#A7A9AC;}
	.st1{fill:none;stroke:#262262;stroke-width:8;stroke-miterlimit:10;}
	.st2{fill:#A7A9AC;stroke:#262262;stroke-width:8;stroke-miterlimit:10;}
	.st3{fill:#31a6ff;stroke:#262262;stroke-width:8;stroke-miterlimit:10;}
</style>
<g>
	<g>
		<path class="st0" d="M330.73,59.88H107.42c-17.85,0-32.32,14.47-32.32,32.32v209.6c0,17.85,14.47,32.32,32.32,32.32h223.31
			c17.85,0,32.32-14.47,32.32-32.32V92.21C363.06,74.35,348.58,59.88,330.73,59.88z M329.92,273.58c0,16.01-12.98,28.99-28.99,28.99
			H135.46c-15.03,0-27.22-12.19-27.22-27.22V118.66c0-15.03,12.19-27.22,27.22-27.22h166.77c15.3,0,27.7,12.4,27.7,27.7V273.58z"/>
	</g>
	<g>
		<path class="st1" d="M330.73,59.88H107.42c-17.85,0-32.32,14.47-32.32,32.32v209.6c0,17.85,14.47,32.32,32.32,32.32h223.31
			c17.85,0,32.32-14.47,32.32-32.32V92.21C363.06,74.35,348.58,59.88,330.73,59.88z M329.92,273.58c0,16.01-12.98,28.99-28.99,28.99
			H135.46c-15.03,0-27.22-12.19-27.22-27.22V118.66c0-15.03,12.19-27.22,27.22-27.22h166.77c15.3,0,27.7,12.4,27.7,27.7V273.58z"/>
	</g>
</g>
<path class="st2" d="M342.55,349.58H95.61c-11.33,0-20.51,9.18-20.51,20.51v20.11c0,11.33,9.18,20.51,20.51,20.51h246.94
	c11.33,0,20.51-9.18,20.51-20.51v-20.11C363.06,358.77,353.87,349.58,342.55,349.58z M337.38,385.04c0,2.97-2.4,5.37-5.37,5.37
	H226.76c-2.97,0-5.37-2.4-5.37-5.37v-9.77c0-2.97,2.4-5.37,5.37-5.37H332c2.97,0,5.37,2.4,5.37,5.37V385.04z"/>
<g>
	<path class="st3" d="M216.95,183.34h23.81c13.27,0,21.87,14.03,15.83,25.85c-3.51,6.87-8.32,12.78-14.45,17.72
		c-12.79,10.33-30.1,15.49-51.94,15.49c-24.47,0-43.71-6.67-57.74-20.02c-14.03-13.35-21.05-31.63-21.05-54.86
		c0-23.16,6.95-41.43,20.84-54.81c13.89-13.38,32.83-20.07,56.81-20.07c22.12,0,39.51,4.97,52.2,14.91
		c5.48,4.3,10.08,9.47,13.65,15.44c7.24,12.11-1.65,27.47-15.75,27.36l-23.56-0.2c-0.69-7.27-3.21-12.75-7.57-16.45
		c-4.35-3.7-10.47-5.55-18.35-5.55c-9.61,0-16.81,3.27-21.62,9.79c-4.8,6.53-7.21,16.39-7.21,29.58c0,12.93,2.56,22.71,7.67,29.33
		c5.11,6.63,12.61,9.94,22.5,9.94c7.6,0,13.63-2.03,18.09-6.08C213.58,196.66,216.19,190.87,216.95,183.34z"/>
</g>
<g>
	<path class="st3" d="M216,274.23v-88.53c0-12.5,10.15-22.59,22.65-22.59l25.17,0.1c0.24,0,0.43,0.19,0.43,0.43v100.78
		c0,0.24,0.19,0.43,0.43,0.43h64.73c0.24,0,0.43,0.19,0.43,0.43v14.35c0,12.68-10.28,22.96-22.96,22.96h-62.54
		C228.69,302.57,216,289.88,216,274.23z"/>
</g>
</svg>
